<svg xmlns="http://www.w3.org/2000/svg" width="33" height="33" viewBox="0 0 33 33">
  <g id="Facebook_login" data-name="Facebook login" transform="translate(-439 -860)">
    <rect id="Rectangle_633" data-name="Rectangle 633" width="33" height="33" rx="6" transform="translate(439 860)" fill="#3b5998"/>
    <path id="Facebook" d="M111.715,149H93.384A3.382,3.382,0,0,0,90,152.382v18.331a3.382,3.382,0,0,0,3.382,3.382h9.041l.015-8.967h-2.33a.55.55,0,0,1-.55-.548l-.011-2.891a.55.55,0,0,1,.55-.552h2.326v-2.793c0-3.241,1.98-5.006,4.871-5.006h2.373a.55.55,0,0,1,.55.55v2.437a.55.55,0,0,1-.549.55h-1.456c-1.572,0-1.877.747-1.877,1.844v2.418h3.455a.55.55,0,0,1,.546.614l-.343,2.891a.55.55,0,0,1-.546.485h-3.1l-.015,8.967h5.38a3.381,3.381,0,0,0,3.382-3.381V152.382A3.382,3.382,0,0,0,111.715,149Z" transform="translate(353.013 715)" fill="#fff"/>
  </g>
</svg>
